<svg fill="#000" width="800px" height="800px" viewBox="0 0 32 32" version="1.1"
    xmlns="http://www.w3.org/2000/svg">
    <rect width="32" height="32" rx="100" fill="#D9EBFF" />
    <g fill="#007AFF" transform="translate(16,16) scale(0.6) translate(-16,-16)">

        <g transform="translate(0,0)">
            <path 
                d="M0.060 15.541c0.141-8.424 7.192-15.376 15.478-15.501 0.023 7.694-6.318 15.3-15.478 15.501z"></path>
        </g>

        <g transform="scale(-1,1) translate(-15.6,16)">
            <path
                d="M0.060 15.541c0.141-8.424 7.192-15.376 15.478-15.501 0.023 7.694-6.318 15.3-15.478 15.501z"></path>
        </g>

        <g transform="translate(32,32.13) rotate(180) scale(1.02)">
            <path
                d="M15.541 0.556v5.136c-3.366 0.099-6.13 1.425-8.184 4.102-1.578 2.051-2.233 4.404-2.056 6.981 0.349 5.062 4.631 9.489 10.219 9.516v5.17c-5.391-0.188-9.781-2.338-12.751-6.847-3.57-5.414-3.676-11.096-0.39-16.684 3.227-5.487 9.008-7.522 13.162-7.373z"></path>
        </g>

    </g>
</svg>